<svg xmlns="http://www.w3.org/2000/svg" viewBox="0 0 48 48" width="48px" height="48px">
  <path fill="#fff" d="M4.868,43.303l2.694-9.835C5.9,30.916,5,27.515,5,24C5,13.518,13.518,5,24,5s19,8.518,19,19s-8.518,19-19,19 c-3.376,0-6.662-0.855-9.567-2.477L4.868,43.303z"/>
  <path fill="#25D366" d="M24,4C12.972,4,4,12.972,4,24c0,3.743,1.032,7.37,2.999,10.528L4,44l9.742-2.923C16.828,42.946,20.354,44,24,44 c11.028,0,20-8.972,20-20S35.028,4,24,4z M24,40c-3.179,0-6.279-0.841-8.966-2.433l-0.643-0.381l-5.795,1.739l1.761-5.632 l-0.419-0.668C8.243,29.873,7,26.986,7,24C7,14.626,14.626,7,24,7s17,7.626,17,17S33.374,40,24,40z"/>
  <path fill="#25D366" d="M34.787,28.665c-0.569-0.284-3.366-1.661-3.887-1.851c-0.521-0.19-0.9-0.284-1.279,0.284 c-0.379,0.569-1.469,1.851-1.801,2.23c-0.332,0.379-0.663,0.426-1.232,0.142c-0.569-0.284-2.403-0.886-4.577-2.824 c-1.691-1.508-2.833-3.37-3.165-3.939c-0.332-0.569-0.035-0.877,0.249-1.16c0.255-0.254,0.569-0.663,0.853-0.995 c0.284-0.332,0.379-0.569,0.569-0.948c0.19-0.379,0.095-0.711-0.047-0.995c-0.142-0.284-1.279-3.08-1.753-4.218 c-0.462-1.109-0.931-0.959-1.279-0.976c-0.332-0.016-0.711-0.016-1.09-0.016c-0.379,0-0.995,0.142-1.516,0.711 c-0.521,0.569-1.99,1.943-1.99,4.739c0,2.796,2.038,5.497,2.322,5.876c0.284,0.379,4.013,6.128,9.722,8.595 c1.358,0.587,2.418,0.938,3.245,1.201c1.364,0.434,2.605,0.373,3.586,0.226c1.094-0.163,3.366-1.374,3.84-2.701 C35.403,30.344,35.403,29.186,35.261,28.949C35.119,28.712,34.787,28.665,34.787,28.665z"/>
</svg>
